<svg preserveAspectRatio="none" width="100%" height="100%" overflow="visible" style="display: block;" viewBox="0 0 64 61" fill="none" xmlns="http://www.w3.org/2000/svg">
<g id="Frame 16">
<rect width="63.1111" height="60.8889" fill="#F00027"/>
<g id="UNI PACK">
<path d="M13.3758 9.33333V22.0939C13.3758 23.3897 13.5926 24.3286 14.026 24.9108C14.4783 25.4742 15.2793 25.7559 16.4289 25.7559C17.5786 25.7559 18.3701 25.4742 18.8036 24.9108C19.2559 24.3286 19.482 23.3897 19.482 22.0939V9.33333H23.5245V21.5587C23.5245 22.9484 23.402 24.1315 23.157 25.108C22.912 26.0845 22.5068 26.892 21.9415 27.5305C21.3949 28.1502 20.6693 28.6103 19.7647 28.9108C18.8601 29.1925 17.7482 29.3333 16.4289 29.3333C15.1097 29.3333 13.9978 29.1925 13.0932 28.9108C12.1885 28.6103 11.4535 28.1502 10.8881 27.5305C10.3416 26.892 9.94584 26.0845 9.70084 25.108C9.45583 24.1315 9.33333 22.9484 9.33333 21.5587V9.33333H13.3758Z" fill="var(--fill-0, white)"/>
<path d="M32.5109 18.4601L31.267 15.3333H30.8147L31.0409 18.6291V28.9953H27.2528V9.33333H31.6628L36.6382 19.8685L37.882 22.9953H38.3343L38.1082 19.6995V9.33333H41.8963V28.9953H37.4863L32.5109 18.4601Z" fill="var(--fill-0, white)"/>
<path d="M45.0991 28.9953V25.8122H47.4172V12.5164H45.0991V9.33333H53.7778V12.5164H51.4597V25.8122H53.7778V28.9953H45.0991Z" fill="var(--fill-0, white)"/>
</g>
<g id="UNI PACK_2">
<path d="M9.33333 51.297V36.2585H14.8137C17.2731 36.2585 18.5028 37.6877 18.5028 40.546C18.5028 43.4043 17.2731 44.8335 14.8137 44.8335H11.0393V51.297H9.33333ZM11.0393 43.3253H14.771C16.0363 43.3253 16.6689 42.6359 16.6689 41.257V39.835C16.6689 38.4561 16.0363 37.7667 14.771 37.7667H11.0393V43.3253Z" fill="var(--fill-0, white)"/>
<path d="M28.1886 51.297L26.8664 46.7941H21.514L20.1919 51.297H18.486L23.1347 36.2585H25.2671L29.9372 51.297H28.1886ZM24.7553 39.6627L24.2862 37.7882H24.073L23.6038 39.6627L21.9192 45.3721H26.4826L24.7553 39.6627Z" fill="var(--fill-0, white)"/>
<path d="M36.5787 51.5556C35.7399 51.5556 34.9865 51.4047 34.3183 51.1031C33.6501 50.7871 33.0815 50.3131 32.6124 49.6811C32.1574 49.0491 31.802 48.2448 31.5461 47.2681C31.3045 46.277 31.1836 45.1136 31.1836 43.7778C31.1836 42.442 31.3045 41.2857 31.5461 40.309C31.802 39.3179 32.1574 38.5064 32.6124 37.8744C33.0815 37.2424 33.6501 36.7756 34.3183 36.474C34.9865 36.158 35.7399 36 36.5787 36C37.8013 36 38.7822 36.2657 39.5214 36.7972C40.2607 37.3143 40.8436 38.1114 41.27 39.1887L39.9053 40.0289C39.6352 39.2102 39.2442 38.5926 38.7324 38.1761C38.2349 37.7452 37.517 37.5297 36.5787 37.5297C35.4414 37.5297 34.56 37.9462 33.9345 38.7793C33.3232 39.598 33.0175 40.704 33.0175 42.0973V45.4583C33.0175 46.8515 33.3232 47.9647 33.9345 48.7978C34.56 49.6165 35.4414 50.0259 36.5787 50.0259C37.5454 50.0259 38.2917 49.8032 38.8177 49.358C39.3437 48.8983 39.7418 48.2376 40.0119 47.3758L41.3767 48.2376C40.9502 49.3149 40.346 50.1408 39.5641 50.7153C38.7964 51.2755 37.8013 51.5556 36.5787 51.5556Z" fill="var(--fill-0, white)"/>
<path d="M47.4444 43.8424L45.5039 46.2986V51.297H43.798V36.2585H45.5039V41.2785L45.376 44.381H45.5892L47.7856 41.2785L51.4961 36.2585H53.4579L48.5533 42.7005L53.7778 51.297H51.7733L47.4444 43.8424Z" fill="var(--fill-0, white)"/>
</g>
</g>
</svg>
